<?xml version="1.0" encoding="UTF-8" standalone="no"?>
<svg
   xmlns:dc="http://purl.org/dc/elements/1.1/"
   xmlns:cc="http://creativecommons.org/ns#"
   xmlns:rdf="http://www.w3.org/1999/02/22-rdf-syntax-ns#"
   xmlns:svg="http://www.w3.org/2000/svg"
   xmlns="http://www.w3.org/2000/svg"
   xmlns:sodipodi="http://sodipodi.sourceforge.net/DTD/sodipodi-0.dtd"
   xmlns:inkscape="http://www.inkscape.org/namespaces/inkscape"
   inkscape:version="1.0 (4035a4fb49, 2020-05-01)"
   sodipodi:docname="lfp-logo.svg"
   id="svg20"
   version="1.1"
   viewBox="175 468 1740 1740"
   preserveAspectRatio = "xMinYMin slice"
   height="423"
   width="600">
  <metadata
     id="metadata26">
    <rdf:RDF>
      <cc:Work
         rdf:about="">
        <dc:format>image/svg+xml</dc:format>
        <dc:type
           rdf:resource="http://purl.org/dc/dcmitype/StillImage" />
        <dc:title></dc:title>
      </cc:Work>
    </rdf:RDF>
  </metadata>
  <defs
     id="defs24" />
  <sodipodi:namedview
     inkscape:pagecheckerboard="true"
     inkscape:current-layer="svg20"
     inkscape:window-maximized="1"
     inkscape:window-y="-6"
     inkscape:window-x="-6"
     inkscape:cy="344.5339"
     inkscape:cx="443.88637"
     inkscape:zoom="1.0916501"
     showgrid="false"
     id="namedview22"
     inkscape:window-height="938"
     inkscape:window-width="1500"
     inkscape:pageshadow="2"
     inkscape:pageopacity="0"
     guidetolerance="10"
     gridtolerance="10"
     objecttolerance="10"
     borderopacity="1"
     bordercolor="#666666"
     pagecolor="#ffffff">
    <inkscape:grid
       id="grid2640"
       type="xygrid" />
  </sodipodi:namedview>
  <g
     inkscape:label="Layer 1"
     id="layer1"
     inkscape:groupmode="layer">
    <rect
       y="503.10852"
       x="229.01099"
       height="26.479395"
       width="777.92175"
       id="rect2530"
       style="fill:#ffffff;fill-opacity:1;stroke-width:3.125" />
    <path
       id="path2556"
       d="m 1741.9149,483.78571 c 2.4566,0.56081 2.0695,-2.82391 3.5783,-3.57828 0.6401,-0.32007 1.468,0.22625 2.1469,0 9.1337,-3.04457 21.5282,-1.43132 31.489,-1.43132 4.7771,0 25.6541,-0.99078 28.6264,0 2.5048,0.83494 6.0808,0.89344 8.5879,2.14697 0.6035,0.30188 0.8279,1.12956 1.4314,1.43131 0.64,0.32007 1.468,-0.22625 2.1469,0 1.8971,0.63235 6.6427,1.53219 7.8723,2.147 1.0224,0.51119 3.5912,1.44419 4.2939,2.14697 0.1688,0.16875 -0.2134,0.60897 0,0.71566 1.3417,0.67081 2.8035,0.34303 4.294,0.71565 1.69,0.4225 6.6958,3.34794 8.5879,4.29397 2.9784,1.48919 -0.7651,-0.0494 0.7157,1.43131 0.8247,0.82475 3.2296,0.89919 4.2939,1.43131 1.6501,0.82503 13.4538,9.01612 13.5975,9.30359 1.0874,2.17478 2.4332,4.86625 3.5783,7.15659 0.01,0.0219 0.6582,3.63581 1.4313,2.86263 0.2385,-0.23844 -0.7156,-1.05304 -0.7156,-0.71566 0,0.75437 0.4771,1.43131 0.7156,2.14697 0.6644,1.993 1.2844,3.28425 2.147,5.00962 0.3201,0.64012 -0.2262,1.46806 0,2.14697 0.3401,1.02015 1.0306,1.03053 1.4314,1.43134 1.1094,1.10941 3.9753,12.08778 2.8626,14.31318 -0.7912,1.58238 -0.4442,0.22219 -1.4313,0.71566 -2.9784,1.48918 0.765,-0.0494 -0.7157,1.43131 -1.3329,1.3329 -8.0043,1.2194 -10.0192,0.71565 -2.7918,-0.69793 -4.0904,-3.83434 -6.4409,-5.00959 -1.1528,-0.57637 -3.0762,-0.8224 -4.294,-1.43134 -0.6035,-0.30187 -0.8278,-1.12956 -1.4313,-1.43131 -0.6929,-0.34644 -2.2428,-0.3025 -2.8627,-0.71566 -2.6894,-1.79293 -5.1684,-2.94206 -7.8722,-4.29396 -1.6876,-0.84378 -4.0377,-0.58753 -5.7253,-1.43132 -2.2893,-1.14465 0.858,-0.28656 -1.4313,-1.43131 -5.3904,-2.69518 -10.9149,-5.49571 -16.4602,-7.87224 -3.2362,-1.38697 -2.1124,-0.3535 -5.0096,-0.71566 -5.3078,-0.6635 -10.8237,-1.93806 -15.7445,-3.57831 -0.8588,-0.28625 -2.0038,0.28625 -2.8626,0 -1.7442,-0.58141 -3.2639,-0.84941 -5.0097,-1.43131 -2.3388,-0.77963 -6.2297,0.29469 -8.5879,0 -3.6709,-0.45888 -7.7987,-0.70094 -11.4505,-1.43131 -3.0516,-0.61035 -1.4523,-1.0756 -5.0096,-1.43135 -1.899,-0.19 -3.8539,0.37428 -5.7253,0 -1.9947,-0.39893 -3.1501,-1.52712 -5.0096,-2.14696 -1.3024,-0.43413 -2.9916,-0.28157 -4.294,-0.71566 -1.25,-0.41669 -1.8138,-1.79737 -2.8626,-2.14697 -2.3914,-0.79715 -4.9701,-1.7694 -7.1566,-2.86265 -0.9585,-0.47925 -0.9916,-1.70728 -1.4313,-2.14697 -1.4807,-1.48072 0.058,2.26275 -1.4313,-0.71566 -3.8393,-7.67843 -0.4713,-12.32918 3.5782,-15.02886 0.9925,-0.66163 2.3856,0 3.5784,0 z"
       style="fill:#ffffff;fill-opacity:1;stroke:#000000;stroke-width:3.125px;stroke-linecap:butt;stroke-linejoin:miter;stroke-opacity:1" />
    <path
       id="path2558"
       d="m 1505.7473,711.36538 c 7.222,0.59497 6.9234,0.11656 12.8818,-2.86263 2.0421,-1.02106 7.4953,-0.59 10.0193,-1.43131 6.0115,-2.00384 14.0269,2.00384 20.0384,0 14.1293,-4.70978 48.4664,-9.60831 64.4094,-4.29396 3.1661,1.05537 8.4644,-1.49307 11.4505,0 1.0286,0.51424 6.7965,4.17393 7.1566,4.29396 3.924,1.308 5.5243,0.61516 10.0193,2.86263 1.5016,0.75084 6.0141,-1.14241 7.1565,0 0.3374,0.33737 -0.3373,1.09396 0,1.43131 0.3857,0.38565 5.2451,0.47556 7.1566,1.43134 3.2842,1.64206 20.921,0 25.7638,0 4.3085,0 19.7611,-1.57003 22.9011,0 2.767,1.3835 6.1612,1.64928 8.5879,2.86262 6.5505,3.27528 -6.0737,-0.59325 4.2939,2.86266 5.0971,1.699 12.3578,0.45356 17.1759,2.86262 5.9568,2.97841 -1.5302,-0.0987 1.4313,2.86263 1.0668,1.06684 3.0386,0.59443 4.2939,1.43134 2.4789,1.65256 4.4659,4.3799 7.1566,5.72528 1.658,0.82897 4.1192,0.62825 5.7253,1.43131 1.207,0.6035 1.6556,2.25912 2.8626,2.86262 0.8535,0.42675 2.0092,-0.42672 2.8627,0 1.5942,0.79713 6.3509,2.68266 7.1566,4.29397 0.2134,0.42672 -0.3374,1.09394 0,1.43131 1.894,1.894 8.981,3.05922 11.4505,4.29397 4.4453,2.22265 6.9822,7.78506 11.4506,10.01921 0.8674,0.43375 3.6941,0.83153 4.2939,1.43131 0.8592,0.85919 1.1712,3.16635 2.8627,4.29397 1.2553,0.83691 3.2271,0.36447 4.2939,1.43131 5.9231,5.92312 6.2736,14.86153 11.4506,20.03846 0.3373,0.33738 1.0939,-0.33734 1.4313,0 0.9382,0.93825 3.0345,4.46587 4.294,5.72528 1.2555,1.25553 5.901,3.03844 7.1565,4.29397 0.8794,0.87937 0.9456,3.33543 2.8627,4.29396 0.4763,0.23813 8.3538,6.6885 8.5879,7.15659 0.4267,0.85347 -0.4268,2.00916 0,2.86263 0.6035,1.207 2.1141,1.73981 2.8626,2.86265 1.7846,2.67688 6.1328,11.24181 7.1566,14.31318 2.5766,7.72975 3.761,14.67865 7.1566,21.46977 0.7584,1.51672 -0.5406,4.1035 0,5.72528 0.7039,2.11185 2.2624,3.92459 2.8627,5.72528 0.5725,1.71759 -0.5726,4.00769 0,5.72528 3.4558,10.36762 -0.4127,-2.25662 2.8626,4.29393 0.7634,1.52675 -0.7634,4.19857 0,5.72528 1.3381,2.67631 2.5173,-0.05 1.4313,4.29397 -1.2173,4.86928 -8.889,8.68825 -12.8819,10.01925 -7.5739,2.52462 -18.2079,2.51859 -25.7637,0 -1.656,-0.55204 -4.1872,0.76903 -5.7253,0 -2.1337,-1.06685 -2.6071,-4.03847 -4.2939,-5.72528 -3.3862,-3.38616 -10.7532,-6.21456 -14.3132,-8.58794 -8.7418,-5.82787 -13.7976,-17.95814 -24.3324,-21.46977 -1.3579,-0.45262 -2.9538,0.50256 -4.294,0 -8.7826,-3.2935 -15.1025,-9.80521 -24.3324,-12.88187 -15.7582,-5.25271 -32.409,-11.1949 -47.2335,-18.60714 -4.9546,-2.47728 -6.9491,-7.20581 -11.4506,-10.01922 -18.5536,-11.59602 -0.6836,0.24938 -10.0192,-2.86265 -24.1721,-8.05737 -47.8191,-17.86546 -72.9973,-22.90109 -6.3401,-1.26803 -13.8184,-0.78931 -20.0384,-2.86265 -1.2802,-0.42672 -1.6097,-2.36147 -2.8627,-2.86262 -6.6051,-2.64206 -25.221,-6.87697 -32.9203,-8.58794 -12.547,-2.78818 -24.1625,-9.00837 -35.783,-12.88187 -1.6441,-0.54803 -1.9858,-3.41715 -2.8626,-4.29393 -0.7544,-0.75438 -1.975,-0.83956 -2.8626,-1.43131 -1.8418,-1.22785 -3.4591,-7.51456 -4.294,-10.01925 -0.7124,-2.13718 -2.8626,-3.20337 -2.8626,-5.72528 0,-0.47709 0,-1.9084 0,-1.43131 0,0.95422 0,3.81684 0,2.86262 0,-1.43131 0.3471,-2.90537 0,-4.29393 -0.1638,-0.65459 -1.1296,-0.82784 -1.4314,-1.43131 -1.5231,-3.04644 0.2879,-12.02615 1.4314,-14.31321 0.4267,-0.85347 2.1879,0.67475 2.8626,0 1.6868,-1.68682 2.8626,-3.81685 4.294,-5.72528 z"
       style="fill:#ffffff;fill-opacity:1;stroke:#000000;stroke-width:3.125px;stroke-linecap:butt;stroke-linejoin:miter;stroke-opacity:1" />
    <path
       id="path2562"
       d="m 1872.1649,1182.9849 c 3.196,2.4621 5.4384,9.7324 7.8722,12.1662 1.5904,1.5904 1.5108,-0.3976 2.147,2.147 0.8858,3.5434 1.6523,24.164 0.7157,27.9107 -0.082,0.3273 -0.609,0.3956 -0.7157,0.7157 -0.8166,2.4497 -1.3398,5.4507 -2.147,7.8722 -0.1066,0.3201 -0.4771,0.4771 -0.7157,0.7157 -0.2384,0.4771 -0.5469,0.9253 -0.7156,1.4313 -1.3428,4.0283 -2.5837,8.5273 -5.0096,12.1662 -0.4034,0.6051 -2.0117,1.2284 -2.147,1.4313 -2.8866,4.3299 1.0375,0.2866 -1.4313,3.5783 -1.7449,2.3265 -3.6736,4.4846 -5.0096,7.1566 -0.3374,0.6747 -0.2972,1.5193 -0.7157,2.147 -0.1325,0.1984 -0.547,-0.1688 -0.7157,0 -2.0151,0.044 -0.1821,1.6135 -0.7156,2.147 -0.4384,0.4384 -1.873,0.6092 -2.147,1.4313 -0.4889,1.4668 -0.2106,2.7788 -0.7157,4.2939 -0.075,0.2263 -0.4771,0 -0.7156,0 -0.2385,0.2385 -0.6339,0.3884 -0.7157,0.7157 -0.8126,3.2507 -0.6187,6.7689 -1.4313,10.0192 -0.2384,0.4771 -0.4771,0.9542 -0.7156,1.4313 -0.2385,0 -0.5834,-0.1984 -0.7157,0 -0.4185,0.6277 -0.3783,1.4723 -0.7157,2.147 -0.9858,1.9717 -3.1029,3.2231 -4.2939,5.0096 -1.6174,2.426 -3.4059,4.751 -5.0096,7.1566 -1.1093,1.664 -2.2615,4.6375 -2.8627,6.441 -0.1509,0.4526 0.2647,1.0343 0,1.4313 -0.2959,0.4438 -1.0541,0.3385 -1.4313,0.7157 -1.0846,1.0845 -4.717,5.6442 -5.7253,7.1565 -2.0675,3.1014 -4.0953,6.8919 -6.4409,10.0193 -0.9829,1.3105 -2.6678,2.2125 -3.5783,3.5783 -0.7892,1.1837 -2.0138,3.4451 -2.8627,4.2939 -1.9794,1.9794 -7.1803,6.8107 -9.3035,7.8723 -3.4029,1.7015 -5.4038,6.4651 -8.5879,8.5879 -0.1985,0.1322 -0.4771,0 -0.7157,0 -0.7157,0.4771 -1.5388,0.8231 -2.147,1.4313 -0.3772,0.3772 -0.299,1.0981 -0.7156,1.4313 -3.8722,3.0978 -2.0869,0.3278 -4.294,1.4314 -2.8841,1.442 -6.0616,4.8199 -9.3036,6.4409 -1.0137,0.5069 -2.5417,0.3701 -3.5783,0.7156 -1.1315,0.3772 -1.7957,1.6136 -2.8626,2.147 -0.3964,0.1981 -5.011,0.3582 -6.4409,0.7157 -2.0207,0.5052 -4.4203,-0.5052 -6.441,0 -1.9663,0.4916 -1.9262,1.0456 -3.5783,2.147 -1.1435,0.7623 -4.2907,0.2375 -5.7252,0.7156 -4.1071,1.3691 -7.9231,3.9489 -12.1662,5.0096 -3.9779,0.9945 -8.1125,2.0519 -12.1662,2.8627 -4.5542,0.9108 -9.0888,0.966 -12.8819,2.8626 -2.2595,1.1298 -6.1958,-0.7974 -8.5879,0 -0.3201,0.1066 -0.4139,0.5648 -0.7157,0.7157 -1.3158,0.6579 -16.9249,1.1989 -17.8915,0.7156 -0.931,-0.4655 -2.01,-0.2893 -2.8626,-0.7156 -3.8312,-1.9156 -4.13,-2.147 -8.5879,-2.147 -8.6101,0 -17.7329,1.9613 -25.7638,-0.7157 -3.0069,-1.0023 -6.4375,0.7174 -9.3035,-0.7156 -0.7634,-0.3817 -2.0993,0.3817 -2.8627,0 -0.973,-0.4866 -6.0876,-2.5094 -6.4409,-2.8627 -0.3772,-0.3771 -0.3385,-1.0541 -0.7157,-1.4313 -1.3867,-1.3867 -5.0271,-2.9153 -5.7252,-5.0096 -0.151,-0.4526 0.1509,-0.9787 0,-1.4313 -0.2135,-0.6401 -1.1296,-0.8278 -1.4313,-1.4313 -1.0446,-2.0892 -3.4902,-7.333 -2.147,-10.0193 0.1065,-0.2134 0.5248,0.1432 0.7156,0 0.8097,-0.6072 1.4314,-1.4313 2.147,-2.147 0.8069,-0.8069 1.6387,-2.3543 2.147,-2.8626 5.2868,-5.2868 25.6005,-10.7185 32.9203,-11.4505 2.7037,-0.2704 5.9917,0.025 8.5879,-0.7157 1.0258,-0.2931 1.8277,-1.1726 2.8627,-1.4313 10.3695,-2.5924 -7.2877,4.0991 7.1566,-0.7157 0.816,-0.2718 1.3416,-1.1293 2.147,-1.4313 1.1389,-0.4271 2.3855,-0.4771 3.5782,-0.7157 1.4313,-0.4771 2.8932,-0.8709 4.294,-1.4313 4.7483,-1.8993 8.991,-5.0068 13.5975,-7.1566 4.1186,-1.922 8.6889,-3.2126 12.8819,-5.0096 0.9806,-0.4202 1.9084,-0.9542 2.8626,-1.4313 1.1928,-0.7157 2.3072,-1.582 3.5783,-2.147 2.0098,-0.8932 4.4311,-0.5381 6.441,-1.4313 1.0899,-0.4844 1.7957,-1.6135 2.8626,-2.147 2.6989,-1.3494 5.8481,-1.5981 8.5879,-2.8626 3.1778,-1.4667 5.999,-3.7386 9.3036,-5.0096 4.1263,-1.5871 7.1269,-1.8887 10.7349,-4.294 0.8945,-0.5964 2.5843,-2.7831 3.5783,-3.5783 1.798,-1.4384 3.9273,-2.1399 5.7252,-3.5783 2.0963,-1.677 5.5909,-4.8752 7.1566,-6.4409 1.4296,-1.4295 1.6384,-4.0929 2.8627,-5.7253 2.178,-2.904 3.4734,-6.4888 5.7253,-9.3036 2.7392,-3.424 5.4611,-6.4026 7.8722,-10.0192 1.6515,-2.4773 4.7894,-3.9637 6.4409,-6.4409 1.1295,-1.6942 0.3728,-1.8041 2.147,-3.5783 1.3019,-1.3019 2.9116,-2.196 4.294,-3.5783 1.5387,-1.5387 2.0979,-4.245 3.5783,-5.7253 1.4801,-1.4802 1.9104,-0.8773 2.8626,-2.147 0.6938,-0.9251 1.9818,-3.413 2.8626,-4.2939 4.7358,-4.7358 9.8313,-8.6639 13.5976,-14.3132 0.99,-1.4851 3.9008,-3.1852 5.0096,-4.294 1.8072,-1.8072 9.6294,-9.7924 10.7349,-11.4505 0.9192,-1.3789 1.3671,-2.5813 2.8626,-3.5783 3.2788,-2.1859 6.5544,-5.5624 10.0192,-7.8723 4.0781,-2.7187 4.5997,-2.4526 8.588,-6.4409 z"
       style="fill:#ffffff;fill-opacity:1;stroke:#000000;stroke-width:3.125px;stroke-linecap:butt;stroke-linejoin:miter;stroke-opacity:1" />
    <path
       id="path2564"
       d="m 678.44505,1243.1003 c 0.70497,7.8478 -4.07178,18.7801 -2.14697,26.4794 0.45241,1.8096 7.02631,15.6142 7.87225,16.4602 0.16875,0.1687 0.547,-0.1688 0.71565,0 1.80719,1.8071 3.16297,5.3099 5.00963,7.1565 0.87325,0.8733 3.67271,2.4303 4.29396,4.294 0.15094,0.4526 -0.21343,1.0046 0,1.4313 0.0444,0.088 2.10831,1.354 2.14697,1.4313 0.21344,0.4268 -0.15094,0.9787 0,1.4313 0.37934,1.1381 1.60328,1.7753 2.14697,2.8627 0.21344,0.4267 -0.21344,1.0046 0,1.4313 1.04665,2.0933 1.76278,4.2412 2.86265,6.4409 0.51122,1.0225 1.44419,3.5912 2.14697,4.294 1.48072,1.4807 -0.0578,-2.2627 1.43131,0.7157 0.21688,0.4337 0.41578,1.847 0.71569,2.1469 0.40947,0.4095 1.80862,0.4163 2.14697,1.4313 0.15094,0.4527 -0.21344,1.0046 0,1.4314 0.0659,0.1321 1.89297,0.5886 2.14697,0.7156 0.29218,0.146 6.12027,6.5153 6.44093,7.1566 1.77119,3.5424 4.81744,6.5105 7.15659,10.0193 0.78256,1.1738 1.36444,0.2575 2.147,1.4313 0.29594,0.4438 0.23844,1.6698 0.71566,1.4313 0.47709,-0.2384 -0.71566,-1.9647 -0.71566,-1.4313 0,0.7543 0.29719,1.5193 0.71566,2.147 0.29718,0.4459 1.51156,-0.2375 2.14696,0.7156 0.29594,0.4439 0.27188,1.1355 0.71566,1.4313 0.68403,0.4561 3.20312,0.7041 4.29397,1.4313 0.23843,0.2385 0.47709,0.4772 0.71565,0.7157 0,0.2384 -0.16875,0.547 0,0.7157 0.26531,0.2653 2.4205,0.4945 2.86262,0.7156 1.5996,0.7998 2.69441,2.0629 4.29397,2.8627 0.64916,0.3246 4.68787,1.1096 5.00962,1.4313 0.16875,0.1687 -0.16875,0.547 0,0.7156 0.63794,0.638 2.1026,0.3357 2.86263,0.7157 2.2204,1.1102 4.22053,2.4681 6.44093,3.5783 0.80306,0.4015 2.03366,0.3012 2.86266,0.7157 2.9784,1.4892 -0.76507,-0.049 0.71565,1.4313 0.33735,0.3373 1.00457,-0.2135 1.43131,0 0.6035,0.3018 0.82782,1.1296 1.43132,1.4313 0.42675,0.2134 1.09396,-0.3374 1.43131,0 0.37719,0.3772 0.3385,1.0541 0.71569,1.4313 1.90409,1.9041 6.14621,4.9114 8.5879,5.7253 2.76137,0.9204 15.47402,0 19.3228,0 2.57944,0 13.28315,0.8728 15.02884,0 1.22018,-0.6101 4.99356,-2.1309 5.72528,-2.8627 6.34681,-6.3468 3.78109,-13.4623 -2.86263,-17.8914 -1.3509,-0.9006 -2.18672,-2.7434 -3.57831,-3.5783 -0.64687,-0.3882 -1.54347,-0.2632 -2.14697,-0.7157 -1.12762,-0.8457 -2.54671,-3.2624 -3.57831,-4.2939 -3.65728,-3.6573 0.99816,3.0007 -2.86262,-2.147 -2.09422,-2.7923 -4.70125,-6.1326 -7.15659,-8.5879 -0.69075,-0.6908 -1.97897,-0.9688 -2.86266,-2.147 -0.32003,-0.4267 -0.33846,-1.0541 -0.71565,-1.4313 -1.08009,-1.0801 -2.49819,-1.7826 -3.57828,-2.8627 -5.4234,-5.4234 -10.10928,-11.5406 -15.02887,-16.4601 -2.239,-2.239 -5.1924,-4.6544 -7.87225,-6.441 -1.64412,-1.0961 0.30688,-0.4087 -1.43131,-2.1469 -1.32656,-1.3266 -3.07084,-2.0494 -4.29396,-3.5783 -0.95422,-1.1928 -1.59169,-2.731 -2.86263,-3.5783 -1.76484,-1.1766 -3.40706,-1.9758 -5.00962,-3.5783 -1.82206,-1.8221 -3.13909,-4.5704 -5.00962,-6.441 -0.6886,-0.6886 -2.66934,-1.6507 -3.57828,-2.8626 -0.63438,-0.8458 -1.20913,-2.1592 -2.147,-2.8626 -0.83672,-1.2988 -2.4655,-1.3124 -3.57828,-2.147 -1.85575,-1.3918 -3.08253,-3.7249 -5.00962,-5.0096 -2.62703,-1.7514 -5.81841,-2.1936 -8.58791,-3.5783 -2.61034,-1.3052 -4.71196,-3.7873 -7.15659,-5.0096 -1.62349,-0.8118 -2.50384,-2.5039 -3.57831,-3.5784 -0.52712,-0.5271 -2.87581,-0.9629 -3.57831,-1.4313 -1.73337,-1.1556 -2.24937,-2.965 -3.57828,-4.2939 -0.28843,-0.2885 -1.7759,-0.4683 -2.14696,-0.7157 -0.95435,-0.6362 -1.79738,-2.33 -2.86266,-2.8626 -2.59153,-1.2958 -5.14868,-2.9322 -7.87225,-4.294 -0.6035,-0.3019 -0.82781,-1.1295 -1.43131,-1.4313 -0.61584,-0.3078 -10.94568,-1.2206 -11.45055,-0.7156 -0.36894,0.3689 -0.63438,4.2939 0,4.2939 0.23843,0 -0.21344,-0.609 0,-0.7157 0.87975,-0.4398 1.90843,-0.4771 2.86262,-0.7156 z"
       style="fill:#ffffff;fill-opacity:1;stroke:#000000;stroke-width:3.125px;stroke-linecap:butt;stroke-linejoin:miter;stroke-opacity:1" />
    <path
       id="path2566"
       d="m 307.73352,1024.8242 c 12.85283,19.509 18.49854,16.6625 37.21428,22.9011 3.38269,1.1275 8.00787,-0.8607 11.45056,0 0.65459,0.1637 0.79122,1.2179 1.43131,1.4313 2.78194,0.9273 7.40222,-1.3085 10.01925,0 2.90284,1.4514 6.93196,3.2649 10.01921,4.294 0.90525,0.3018 2.00916,-0.4268 2.86266,0 1.20696,0.6035 1.73981,2.114 2.86262,2.8626 2.39822,1.5988 5.81118,1.937 8.5879,2.8626 2.275,0.7583 5.02412,3.2278 7.15659,4.294 4.55906,2.2795 12.85525,-0.729 17.17584,1.4313 8.70384,4.3519 41.90532,0.9742 51.52747,-1.4313 1.6786,-0.4197 6.08262,1.074 7.15659,0 0.33738,-0.3374 -0.33737,-1.094 0,-1.4313 0.67472,-0.6748 2.00916,0.4267 2.86266,0 0.60347,-0.3019 0.82781,-1.1296 1.43131,-1.4314 2.49319,-1.2465 5.94328,-0.109 8.5879,-1.4313 3.07147,-1.5357 23.06846,0.084 25.76374,1.4313 3.60622,1.8032 37.71083,-1.6795 40.07692,-2.8626 6.47184,-3.2359 10.97374,-8.7471 17.17583,-12.8818 3.91119,-2.6075 9.06412,-2.862 12.88187,-5.7253 2.15913,-1.6194 3.56613,-4.106 5.72528,-5.7253 3.75081,-2.8131 8.29565,-2.7165 11.45053,-4.294 1.207,-0.6035 1.73984,-2.1141 2.86265,-2.8626 1.54941,-1.0329 5.1935,-1.8811 7.15659,-2.8626 0.85347,-0.4268 2.00916,0.4267 2.86263,0 2.30374,-1.1519 4.83668,-4.952 7.15662,-5.7253 0.90522,-0.3019 2.06865,0.5293 2.86262,0 0.88766,-0.5918 0.83953,-1.975 1.43131,-2.8626 3.24741,-4.8711 10.79356,-12.4439 15.74453,-15.74454 6.02093,-4.01397 10.86712,-11.53872 17.1758,-15.74453 3.0405,-2.02699 -0.2275,3.204 2.86266,-1.43131 1.67781,-2.51672 3.61071,-6.47337 5.72527,-8.5879 2.59538,-2.5954 7.34678,-5.02465 10.01922,-8.58793 2.43784,-3.25044 6.37215,-10.66609 8.5879,-12.88187 1.21641,-1.21638 3.21934,-1.51934 4.29397,-2.86263 0.9425,-1.17812 0.65509,-3.00021 1.43131,-4.29396 1.01034,-1.68391 3.28362,-2.61003 4.29396,-4.29394 5.60772,-9.34621 11.39034,-17.08552 17.17584,-25.76374 0.44816,-0.67224 0.98316,-3.62174 1.43131,-4.29396 2.01716,-3.02572 5.13944,-5.56219 7.15659,-8.5879 4.67291,-7.00938 5.49309,-16.01497 7.15659,-24.33243 0.37428,-1.87137 -0.70878,-3.95334 0,-5.72528 0.63888,-1.59719 2.22375,-2.69675 2.86266,-4.29397 2.20534,-5.5134 1.39447,-12.73446 2.86262,-18.60711 1.32728,-5.30919 6.7094,-23.88524 10.01922,-27.19508 0.75437,-0.75438 2.10828,-0.67694 2.86265,-1.43131 1.01209,-1.0121 -0.64009,-3.01375 0,-4.29397 0.21344,-0.42672 1.09394,0.33737 1.43131,0 2.28888,-2.28884 4.84928,-8.82256 5.72528,-11.45053 1.43781,-4.3134 6.96909,-7.38368 10.01925,-11.45055 2.63324,-3.51103 4.71571,-7.78928 7.15659,-11.45056 2.89246,-4.33872 21.83449,-14.58671 27.19505,-18.60715 1.68331,-1.2625 3.71031,-4.71778 5.72527,-5.72528 0.85347,-0.42671 2.00916,0.42675 2.86263,0 4.96134,-2.48065 10.00437,-7.13431 12.88187,-11.45052 -0.14282,-2.83553 2.10828,-0.67697 2.86265,-1.43134 5.58606,-5.58603 -0.33134,-0.76869 1.43131,-4.29394 0.9386,-1.87719 4.80863,-6.12725 4.29394,-7.15659 -2.83691,-5.67381 -7.27287,-2.94019 -11.45053,-5.72528 -3.8475,-2.565 -10.01627,-6.08237 -14.31318,-7.15659 -4.17106,-1.04278 -22.3388,1.15016 -25.76374,2.86262 -3.43518,1.7176 -9.44671,-1.71756 -12.88186,0 -4.616,2.308 -9.41128,2.66 -14.31322,4.29397 -2.04028,0.68009 -2.06103,2.06103 -2.86262,2.86262 -0.67472,0.67475 -1.95741,-0.30187 -2.86265,0 -10.36762,3.45588 2.25665,-0.41265 -4.29394,2.86266 -1.14506,0.57253 -3.1489,-0.57253 -4.29397,0 -2.13465,1.06734 -3.54187,3.20225 -5.72528,4.29393 -1.60612,0.80307 -4.06731,0.60235 -5.72527,1.43135 -1.9156,0.95778 -3.40594,3.40593 -4.29394,4.29393 -0.71709,0.7171 -4.78693,0.49297 -5.72528,1.43132 -4.03021,0.0888 -0.36447,3.22712 -1.43131,4.29396 -0.59978,0.59978 -3.4265,0.9976 -4.29397,1.43131 -2.68537,1.34269 -0.61206,1.83616 -1.43131,4.29397 -1.06881,3.20647 -6.07675,5.34831 -7.15659,8.5879 -0.30187,0.90525 0.30188,1.95741 0,2.86266 -1.48922,4.46759 -0.95422,-0.47713 -2.86265,1.43131 -0.65807,0.65806 -2.29981,4.59965 -2.86263,5.72528 -1.14506,2.29009 1.14506,6.29781 0,8.5879 -2.08703,4.17406 -2.69875,6.66493 -4.29396,11.45056 -0.57253,1.71759 0.57253,4.00768 0,5.72528 -0.75622,2.26868 -2.34569,15.22755 -2.86263,15.74449 -0.96359,0.96359 -1.80881,0.75493 -2.86265,2.86265 -0.42672,0.85347 0.67475,2.18791 0,2.86263 -0.33735,0.33737 -1.09394,-0.33738 -1.43131,0 -0.71566,0.71565 0.71565,3.57831 0,4.29396 -0.33738,0.33738 -1.09397,-0.33737 -1.43132,0 -0.53056,0.53053 -0.98918,4.841 -1.43131,5.72528 -2.9784,5.95681 0.0987,-1.53015 -2.86265,1.43131 -0.7171,0.7171 -0.49297,4.78694 -1.43131,5.72528 -0.85919,0.85916 -3.16632,1.17116 -4.29397,2.86263 -0.83691,1.25534 -0.36447,3.22712 -1.43131,4.29396 -2.24888,2.24888 -6.33906,4.90772 -8.5879,7.15659 -0.67475,0.67472 0.42671,2.00916 0,2.86263 -1.543,3.08603 -4.22794,5.59324 -5.72528,8.58793 -2.08622,4.17243 -6.50169,7.27809 -8.58791,11.45056 -0.43375,0.86743 -0.83156,3.69415 -1.43134,4.29393 -0.80159,0.8016 -2.18253,0.82235 -2.86262,2.86266 -2.01166,6.03496 2.83028,15.80918 0,21.46977 -0.30188,0.6035 -1.21797,0.79122 -1.43131,1.43131 -0.45263,1.35787 1.01209,3.28187 0,4.29397 -2.96147,2.96143 0.11562,-4.5255 -2.86266,1.43131 -2.13712,4.27428 -5.121,9.00143 -10.01921,11.45056 -0.8535,0.42671 -2.00919,-0.42675 -2.86266,0 -4.39731,2.19865 2.36734,0.80731 -2.86262,4.29393 -0.79397,0.52931 -2.00916,-0.42672 -2.86266,0 -0.42671,0.21344 0.21344,1.00459 0,1.43134 -1.14503,2.2901 -4.58021,3.43516 -5.72527,5.72528 -1.232,2.46403 -1.74397,6.35062 -2.86263,8.5879 -1.49887,2.99775 -4.33862,5.8146 -5.72528,8.58791 -1.0394,2.07881 -4.49668,1.63403 -5.72528,2.86265 -1.30793,1.30791 -3.40952,5.38775 -4.29393,7.15659 -0.82266,1.64528 -5.18972,3.22281 -5.72528,4.29394 -0.42675,0.8535 0.42672,2.00918 0,2.86265 -0.0816,0.16344 -7.98871,5.95819 -8.58793,7.15659 -1.7411,3.48222 -4.77659,4.77662 -7.15659,7.15659 -2.6255,2.6255 -2.50516,4.11522 -5.72528,5.72528 -2.07913,1.03956 -3.76019,3.31141 -5.72525,4.29397 -1.47469,0.73731 -4.43697,3.00562 -4.29397,2.86262 0.75438,-0.75437 3.617,-2.18569 2.86263,-1.43131 -0.92756,0.92756 -6.92637,4.8945 -8.5879,5.72528 -2.11066,1.05534 -8.46584,-0.12219 -10.01925,1.43134 -0.33734,0.3373 0.33738,1.0939 0,1.4313 -1.85887,1.8589 -6.16778,3.0839 -8.5879,4.2939 -1.52675,0.7634 -4.19853,-0.7633 -5.72528,0 -10.07915,5.0396 -15.08752,4.6812 -25.76374,10.0193 -1.14503,0.5725 -3.1489,-0.5726 -4.29393,0 -1.66731,0.8336 -2.62666,2.029 -4.29397,2.8626 -0.85347,0.4267 -2.1879,-0.6747 -2.86262,0 -0.33738,0.3374 0.33734,1.094 0,1.4313 -2.73181,2.7318 -38.32492,-5.355 -45.80223,-2.8626 -1.48256,0.4942 -2.87397,2.1526 -4.29394,2.8626 -2.617,1.3085 -7.23727,-0.9273 -10.01924,0 -0.6401,0.2135 -0.82781,1.1296 -1.43131,1.4313 -3.05347,1.5268 -8.39706,-1.5267 -11.45056,0 -3.43531,1.7177 -21.34046,2.9273 -24.3324,1.4314 -1.77709,-0.8886 -12.52983,-3.942 -12.88186,-4.294 -0.33738,-0.3374 0.33734,-1.094 0,-1.4313 -1.22863,-1.2286 -4.68588,-0.7838 -5.72528,-2.8626 -0.21344,-0.4268 0.42672,-1.218 0,-1.4314 -3.26978,-1.6349 -11.97087,0 -15.74453,0 -0.95421,0 -2.1879,-0.6747 -2.86262,0 -0.33737,0.3374 0.33738,1.094 0,1.4314 -1.01209,1.012 -5.72528,0 -4.29397,0 0.95422,0 3.81685,0 2.86266,0 -5.05331,0 -12.30746,-1.7186 -15.74453,0 -4.16987,2.0849 -9.21555,2.8626 -14.31318,2.8626 -2.50459,0 -15.14526,0.2328 -15.7445,1.4313 -0.87974,1.7595 -0.95422,3.8169 -1.43132,5.7253 z"
       style="fill:#ffffff;fill-opacity:1;stroke:#000000;stroke-width:3.125px;stroke-linecap:butt;stroke-linejoin:miter;stroke-opacity:1" />
    <path
       id="path2568"
       d="m 1421.4876,1667.4268 c -1.19,4.0138 -4.4699,4.5262 -7.5907,5.5665 -1.0627,0.3542 -2.4796,-0.3542 -3.5423,0 -6.6574,2.2191 -10.3542,2.7898 -17.2056,0.5061 -0.4554,-0.1519 -1.0627,0.1518 -1.5182,0 -0.4526,-0.151 -0.5492,-0.8965 -1.0121,-1.0122 -3.1342,-0.7835 -10.133,0 -13.6632,0 -2.0217,0 -3.3547,-1.1712 -5.0605,-2.0242 -1.0556,-0.5277 -2.9093,-0.1262 -4.0484,-0.506 -2.0242,-0.6747 -0.1688,-0.1687 -1.5181,-1.5181 -0.4322,-0.4321 -2.3723,-0.2847 -3.0363,-0.5061 -1.8433,-0.6144 -3.3639,-1.1759 -5.0605,-2.0242 -1.6852,-0.8426 -4.6324,-0.436 -6.0726,-1.0121 -0.5647,-0.2259 -0.9741,-0.7401 -1.5181,-1.0121 -0.5381,-0.269 -1.8774,-0.2884 -2.5302,-0.506 -0.6073,-0.2025 -1.417,0.2025 -2.0243,0 -2.0813,-0.6938 -2.8466,-2.3406 -4.0483,-3.5424 -0.2385,-0.2384 -0.7104,0.151 -1.0121,0 -0.8097,-0.4048 -1.2145,-1.6193 -2.0242,-2.0241 -0.4526,-0.2263 -1.0381,0.16 -1.5182,0 -1.9105,-0.6369 -3.8541,-2.1801 -5.5665,-3.0363 -1.6456,-0.8228 -8.6294,-8.1766 -9.1088,-9.6149 -0.1066,-0.3201 0.1509,-0.7104 0,-1.0121 -0.1147,-0.2291 -1.2516,-0.7455 -1.5182,-1.0121 -0.431,-0.431 -0.6931,-1.6117 -1.5181,-2.0242 -1.2464,-0.6232 0.4568,1.4689 -1.5182,-0.5061 -0.4485,-0.4485 -2.6495,-3.3489 -3.0363,-3.5423 -0.1509,-0.075 -0.3867,0.1194 -0.506,0 -0.3543,-0.3543 -0.7514,-2.0089 -1.0121,-2.5302 -0.4493,-0.8987 -1.7105,-1.5892 -2.0242,-2.5303 -0.1066,-0.32 0.1066,-0.692 0,-1.0121 -0.5265,-1.5795 -0.3373,0.1688 -1.0121,-0.506 -0.1687,-0.1688 -0.3373,-1.3495 -0.506,-1.5181 -0.2619,-0.2619 -1.2562,-0.7502 -1.5182,-1.0121 -0.9233,-0.9234 -1.1368,-3.161 -2.0242,-4.0484 -0.1193,-0.1194 -0.4306,0.1509 -0.506,0 -0.1509,-0.3019 0.1509,-0.7104 0,-1.0121 -0.075,-0.1509 -0.4125,0.1403 -0.5061,0 -1.3427,-2.0142 -0.53,-4.6023 -1.5181,-6.5786 -0.2428,-0.4857 0.1619,-1.5382 0,-2.0242 -0.2653,-0.7958 -1.2489,-1.7224 -1.5181,-2.5303 -0.4866,-1.4597 -0.7846,-2.5811 -1.5182,-4.0483 -0.2025,-0.4049 0.2025,-1.1133 0,-1.5182 -0.2134,-0.4267 -0.7987,-0.5853 -1.0121,-1.0121 -1.1239,-2.248 1.7302,-6.2846 3.0363,-7.5907 0.1025,-0.1025 4.0005,-1.2891 4.5544,-1.0121 0.9774,0.4887 1.6553,1.874 2.5303,2.5303 0.9675,0.7256 2.0275,1.3516 3.0363,2.0241 0.83,0.5534 0.1822,0.9648 1.0121,1.5182 2.1105,1.407 4.7286,3.263 7.0846,4.0484 0.3201,0.1065 0.7104,-0.151 1.0121,0 1.336,0.668 2.5471,2.0242 4.0484,2.0242 0.9444,0 0.7221,0.1081 1.5181,0.506 2.2941,1.1471 6.3088,-1.147 8.6028,0 0.2135,0.1066 0.2797,0.4306 0.5061,0.5061 1.8218,0.6072 4.2508,-0.6073 6.0726,0 1.495,0.4983 3.2877,1.3908 4.5544,2.0241 0.8904,0.4452 1.6398,1.579 2.5302,2.0242 1.9108,0.9554 4.2649,1.1204 6.0726,2.0242 0.4526,0.2263 1.0381,-0.16 1.5182,0 0.6737,0.2247 1.3751,1.1936 2.0241,1.5182 0.4857,0.2428 1.5383,-0.1619 2.0242,0 0.9863,0.3287 1.5838,1.0449 2.5303,1.5181 0.5438,0.2719 1.4387,-0.1953 2.0242,0 1.765,0.5883 3.2954,1.4358 5.0604,2.0242 2.3131,0.771 6.2069,0 8.6028,0 0.9444,0 0.7221,0.1081 1.5182,0.506 0.7036,0.3518 2.7757,0 3.5423,0 1.4482,0 3.7239,-0.4455 5.0605,0 1.8834,0.6278 3.3975,1.6988 5.0605,2.5303 0.8664,0.4332 2.2785,-0.2516 3.0363,0.506 0.1193,0.1194 -0.1194,0.3868 0,0.5061 0.342,0.342 3.4762,0.4399 4.0483,1.0121 0.2669,0.2665 0.2394,0.7454 0.5061,1.0121 0.2897,0.2897 1.2789,0.2943 1.5181,1.0121 0.1066,0.32 -0.1872,0.7313 0,1.0121 0.2094,0.3138 0.7454,0.2393 1.0121,0.506 0.3659,0.3659 1.7265,3.453 2.0242,4.0484 0.6012,1.2025 1.2494,5.2978 2.0242,6.0726 0.1194,0.1193 0.3868,-0.1194 0.506,0 0.1875,0.1875 0.3498,1.7115 0.5061,2.0241 0.3038,0.6073 1.2145,0.9109 1.5181,1.5182 0.3372,0.6742 0.9133,1.9253 1.5182,2.5302 0.3109,0.3109 1.1792,0.3344 1.5181,1.0121 1.2456,2.4912 2.7824,5.0587 4.0484,7.5907 0.151,0.3019 -0.1509,0.7104 0,1.0121 0.1825,0.3653 1.3397,1.8458 1.5181,2.0242 0.1194,0.1194 0.4307,-0.1509 0.5061,0 0.1509,0.3019 -0.1066,0.6921 0,1.0121 0.1509,0.4526 0.8612,0.5595 1.0121,1.0121 0.16,0.4801 -0.2263,1.0655 0,1.5181 1.2821,2.5643 0.5242,4.5182 -0.5061,6.5787 z"
       style="fill:#ffffff;fill-opacity:1;stroke:#000000;stroke-width:3.125px;stroke-linecap:butt;stroke-linejoin:miter;stroke-opacity:1" />
    <path
       id="path2570"
       d="m 330.81353,1638.1442 c -1.71822,0.5346 -3.37953,1.332 -5.00962,2.147 -0.14125,0.071 -0.38585,-0.05 -0.53672,0 -0.63738,0.2125 -1.31838,0.3744 -1.9681,0.5368 -0.24843,0.062 -0.66653,-0.1141 -0.89456,0 -0.21875,0.1093 -0.49103,0.3015 -0.71565,0.3578 -0.405,0.1013 -0.84303,-0.082 -1.25241,0 -0.44887,0.09 -1.48537,0.6532 -1.96806,0.8946 -0.3025,0.1512 -1.21347,0.2125 -1.43131,0.3578 -0.413,0.2753 -0.403,0.4139 -0.8946,0.5368 -0.57556,0.1437 -1.21121,0.4211 -1.78912,0.5367 -0.63741,0.1275 -1.33344,0.052 -1.96807,0.179 -0.54962,0.11 -1.09356,0.3645 -1.61024,0.5368 -0.55663,0.1856 -1.39482,-0.096 -1.96806,0 -0.31679,0.053 -0.57778,0.305 -0.89458,0.3578 -0.91153,0.1519 -6.38007,0.1294 -7.15659,0 -0.29259,-0.049 -2.61145,-0.4138 -3.04155,-0.5367 -0.25644,-0.073 -0.46264,-0.2735 -0.71566,-0.3579 -0.29928,-0.1 -0.79141,0.141 -1.07349,0 -0.36495,-0.1825 -1.56163,-0.3904 -2.14698,-0.5367 -0.64608,-0.1616 -1.19025,0.1206 -1.78915,-0.1788 -0.33107,-0.1656 -3.80088,0 -4.47287,0 -1.72951,0 -3.45902,0 -5.18853,0 -0.67125,0 -1.49558,-0.1303 -2.14698,0 -0.48714,0.097 -1.21223,0.3378 -1.61023,0.5368 -0.27578,0.1378 -4.95269,-0.022 -5.18853,-0.1788 -0.14034,-0.093 -0.20697,-0.2825 -0.35783,-0.3578 -0.10669,-0.053 -0.24469,0.038 -0.35783,0 -1.04855,-0.3495 -2.08159,-0.7048 -3.22046,-0.8946 -0.60354,-0.1006 -1.38781,0.1934 -1.96807,0 -0.18531,-0.062 -0.35925,-0.2691 -0.53674,-0.3578 -0.2821,-0.1409 -0.77422,0.1 -1.07349,0 -0.27747,-0.092 -0.61075,-0.4232 -0.89458,-0.5368 -0.38048,-0.1521 -1.678,-0.1643 -1.96806,-0.3578 -0.59575,-0.3972 -1.4521,-0.8418 -2.14698,-1.0735 -0.16972,-0.056 -0.37671,0.08 -0.53674,0 -0.45454,-0.2272 0.18322,-0.2137 -0.53675,-0.3578 -0.17543,-0.035 -0.36701,0.057 -0.53674,0 -0.204,-0.068 -0.33275,-0.29 -0.53675,-0.3579 -0.21468,-0.072 -0.50096,0.072 -0.71566,0 -1.26303,-0.421 -2.66318,0.1394 -3.93612,-0.1787 -0.19291,-0.048 -1.0207,-0.5156 -1.07349,-0.5368 -0.50943,-0.2037 -0.62271,0 -1.43132,-0.3578 -1.64489,-0.731 -3.64271,-1.8374 -5.00962,-2.8626 -0.60115,-0.4509 -1.00907,-1.1594 -1.61023,-1.6102 -0.65521,-0.4914 -2.41238,-1.0504 -3.22047,-1.2524 -0.6197,-0.155 -0.10747,0.2265 -0.71566,-0.1788 -0.6421,-0.4281 -1.32713,-0.6462 -1.96806,-1.0735 -0.51651,-0.3443 -1.04592,-0.7913 -1.61023,-1.0735 -0.43365,-0.2169 -1.02453,-0.4011 -1.43132,-0.5367 -0.16975,-0.057 -0.37672,0.08 -0.53675,0 -0.29021,-0.145 -0.59035,-0.3847 -0.89457,-0.5368 -0.18347,-0.092 -0.53219,-0.087 -0.71566,-0.179 -0.15087,-0.075 -0.20694,-0.2825 -0.35783,-0.3578 -0.53437,-0.2672 -0.93614,-0.3856 -1.43132,-0.7157 -0.61932,-0.4129 -0.99091,-1.1974 -1.61023,-1.6102 -1.46206,-0.9747 -2.74814,-2.3581 -4.11504,-3.0416 -0.33122,-0.1656 -0.57776,-0.5573 -0.89458,-0.7157 -0.41291,-0.2065 -0.60511,-0.784 -0.89457,-1.0734 -0.13575,-0.136 -0.52822,-0.3493 -0.71566,-0.5368 -0.1074,-0.1075 -0.1464,-0.3958 -0.35783,-0.5367 -0.48984,-0.3266 -1.51251,-1.5614 -1.61023,-1.6102 -0.44788,-0.2241 -1.61925,-1.2795 -1.78915,-1.7892 -0.0377,-0.1131 0.0533,-0.2513 0,-0.3578 -0.0266,-0.053 -0.13675,0.042 -0.17891,0 -0.14231,-0.1422 -0.22928,-0.7661 -0.35783,-0.8946 -0.0422,-0.042 -0.13675,0.042 -0.1789,0 -0.1265,-0.1266 0.08,-0.3767 0,-0.5368 -0.0266,-0.053 -0.13675,0.042 -0.17891,0 -0.0414,-0.042 -0.33801,-0.6562 -0.35783,-0.7156 -0.12887,-0.3866 -0.18881,-0.7354 -0.35783,-1.0735 -0.21425,-0.4285 0.15288,-1.1516 0,-1.6102 -0.17244,-0.5174 -0.32072,-1.222 -0.1789,-1.7892 0.1144,-0.4576 0.74007,-0.3578 1.07349,-0.3578 0.55196,0 2.48764,0.1875 2.86263,0 1.0327,-0.5164 2.67222,-0.3617 3.75721,0 0.54123,0.1803 0.60245,0.2228 1.07349,0.5367 0.18025,0.1203 1.21671,0.2863 1.43132,0.3579 0.16003,0.053 0.19781,0.3043 0.35783,0.3578 0.54089,0.1803 1.23085,0.1344 1.78915,0.3578 1.02076,0.4083 0.11306,0.2763 0.89457,0.5368 0.207,0.069 0.52341,-0.096 0.71566,0 0.59482,0.2975 1.1799,0.6914 1.78915,0.8945 0.34415,0.1147 0.74902,0.016 1.07349,0.1791 0.40119,0.2006 0.78714,0.5993 1.2524,0.7157 0.17357,0.043 0.38788,-0.099 0.53675,0 0.14034,0.093 0.20122,0.2953 0.35783,0.3578 0.16612,0.067 0.36317,-0.043 0.53674,0 0.33971,0.085 0.74352,0.5507 1.07349,0.7157 0.16003,0.08 0.36317,-0.043 0.53675,0 0.30899,0.077 0.59171,0.2568 0.89457,0.3578 0.95814,0.3194 2.92933,-0.1175 4.11504,0.1787 0.94817,0.2369 1.89299,0.6522 2.86264,0.8946 0.23143,0.058 0.48935,-0.075 0.71566,0 0.473,0.1578 0.94051,0.593 1.43132,0.7157 0.51972,0.13 1.08042,0.1812 1.61023,0.3578 0.72846,0.2428 1.36863,0.7389 2.14698,0.8946 0.39418,0.079 0.86191,-0.097 1.2524,0 1.4676,0.3669 -1.41231,0 1.07349,0.3578 0.80576,0.115 1.72856,-0.08 2.50481,0.1791 0.08,0.028 0.0971,0.1584 0.17891,0.179 0.77194,0.1932 1.70378,0.019 2.5048,0.1791 0.5161,0.1031 1.09413,-0.1031 1.61024,0 1.13118,0.2262 2.25139,0.7306 3.39938,0.8946 0.35423,0.051 0.72634,-0.087 1.07349,0 0.5737,0.1434 1.1865,0.4506 1.78915,0.5367 0.47231,0.067 0.96845,-0.1156 1.43131,0 0.25875,0.065 0.45692,0.2931 0.71566,0.3579 0.13916,0.035 1.04367,-0.025 1.25241,0 1.18507,0.1481 2.426,0.3062 3.57829,0.5367 1.46885,0.2937 3.17107,-0.1482 4.65179,0 1.13467,0.1134 2.28897,0.3781 3.39938,0.5367 0.59039,0.084 1.19573,-0.059 1.78915,0 0.24469,0.025 0.47454,0.1306 0.71566,0.1791 0.5161,0.1031 1.09413,-0.1031 1.61023,0 0.5424,0.1084 1.05221,0.2881 1.61024,0.3578 0.5872,0.073 1.20194,-0.073 1.78914,0 0.43083,0.054 0.82039,0.3146 1.25241,0.3578 0.70978,0.1297 1.43426,-0.065 2.14698,0 0.41997,0.038 0.83215,0.1438 1.2524,0.1788 0.93088,0.078 1.94158,-0.1534 2.86264,0 0.18603,0.031 0.34909,0.16 0.53674,0.1791 1.35572,0.1356 2.76363,-0.1691 4.11504,0 1.09211,0.1365 2.16715,0.505 3.22047,0.7156 0.96415,0.1928 1.93178,0.3041 2.86264,0.5368 1.02572,0.2565 3.31819,0 4.47288,0 1.65872,0 3.23863,-0.04 4.83069,0.3578 1.291,0.3228 2.82406,-0.3227 4.11506,0 0.92903,0.2322 -0.19094,0.1788 0.71565,0.1788 0.50772,0 1.30722,-0.1204 1.78916,0 0.68572,0.1715 1.39272,1.0477 1.96806,1.4313 0.5555,0.3703 1.27666,0.6635 1.78912,1.0735 0.85675,0.6854 0.91866,1.4553 1.61025,2.1469 0.21907,0.2191 0.52525,0.2513 0.71566,0.5368 0.19875,0.2984 0.396,0.613 0.53675,0.8945 0.14312,0.2863 0.57253,0.4294 0.71566,0.7157 0.12437,0.2488 0.22906,0.6368 0.35781,0.8946 -0.0669,0.3897 0.29812,0.06 0.35784,0.1791 0.22344,0.4467 0.53675,2.2548 0.53675,2.8626 0,0.3069 0.13531,0.982 0,1.2524 -0.0962,0.1925 -0.54669,0.8101 -0.71565,0.8946 -0.31275,0.1562 -1.50635,1.0735 -1.61025,1.0735 -0.26657,0 -0.4771,-0.2385 -0.71566,-0.3579 z"
       style="fill:#ffffff;fill-opacity:1;stroke:#000000;stroke-width:3.125px;stroke-linecap:butt;stroke-linejoin:miter;stroke-opacity:1" />
  </g>
  <path
     sodipodi:nodetypes="cccccccccccccccccccccccccccsccccccccccccccccccccccccccccccccccccccccccccccccccccccccccccccccccccccccccccccccccccccccccccccccccccccccccccccccccccccccccccccccccccccccccccccccccccccccccccccccccccccccccccccccccccccccccccccccccccccccccccccccccccccccccccccccccccccccccccccccccccccccccccccccccccccccccccccccccccccsccccccccccccccccccccccccccccccccccccccccccccccccccccccccccccccccccccccccccccccccccccccccccccccccccccccccccccccccccccccccccccccccccccccccccccccccccccccccccccccccccccccccccccccccccccccccccccccccccccccccccsccccccccccsccccccccccccsccccccccccccccccccc"
     style="fill:#c3b59b;fill-opacity:1"
     d="m 1776,471.21 h 22 c 23.17,-0.21 46.4,1.86 64,18.83 23.41,22.58 27.24,64.53 13.03,92.96 -4.74,9.48 -11.68,17.96 -20.03,24.48 -11.16,8.73 -30.8,15.35 -45,15.52 h -12 l -85,-8.83 -149,-15 -100,-8.26 -33,-2.82 -23,-1.18 -23,-1.91 h -9 l -11,-1 -23,-1 -15,-1.04 h -12 l -12,-1 h -16 L 1276,580 h -21 l -17,-1 h -80 l -15,1 h -18 l -25,1.91 c -12.3,0.85 -26.79,1.66 -38,7.27 -11.79,5.9 -14,16.65 -27,27.36 -17.5,14.41 -32.85,18.38 -55,19.36 l -17,-0.9 -32,-2.91 -57,-2.09 -17,-1 -80,-2 -13,-1 h -16 l -16,-1 h -14 l -15,-1.04 h -15 l -12,-1 h -14 l -12,-0.96 -37,-1 -15,-1 -33,-1 -15,-1 h -12 l -11,-0.96 h -12 l -21,-1.04 -20,-1 -10,-0.91 -14,-0.92 -45,-4.01 c -57.97,-6.2 -109.85,-16.4 -165,-35.85 -15.84,-5.59 -37.33,-13.3 -47.37,-27.31 -6.48,-9.06 -7.77,-19.21 -7.63,-30 0.03,-1.98 0.02,-4.12 0.74,-6 1.74,-4.53 9.92,-11.76 14.26,-14.02 9.45,-4.92 17.75,-4.1 28,-3.98 l 15,1 h 231 l 15,1 h 162 l 15,-1 h 73 l 15,-1 h 35 l 15,-1 h 23 l 17,-1 h 57 l 16,1 h 25 l 13,1 h 14 l 11,0.96 h 11 l 15,1.04 25,1 20,1 15,1 36,2 17,1 19,1 15,1 26,1 10,0.96 h 13 l 15,1.08 h 15 l 11,0.96 h 19 l 17,1 h 73 l 17,-1 h 19 l 16,-1 46,-2 10,-1 h 9 l 22,-1.91 101,-8.26 53,-5.66 104,-11.89 z m 91,61.79 c -8.25,-35.21 -48.02,-46.95 -80,-47 l -26,1.95 c -5.31,0.6 -12.81,1.69 -17,5.05 32.97,0 66.43,-2.18 96,15.45 5.71,3.41 12,7.98 16.54,12.83 4.4,4.72 4.78,7.22 10.46,11.72 z m -873,-17 -14,-1 h -57 l -15,-1 h -65 l -17,-1 h -73 l -15,-1 h -83 l -15,-1 H 535 l -15,-1 H 417 281 l -15,1 c -8.12,0.01 -15.98,-0.34 -24,1.31 -2.07,0.43 -7.55,2.04 -5.83,5.22 1.35,2.51 11.9,3.92 14.83,4.34 l 45,4.13 h 4 l 15,1 h 4 l 13,1.04 h 15 l 12,0.96 h 80 l 15,-1 h 55 l 15,-1 h 40 l 17,-1 h 35 l 17,-1 75,-1 17,-1 h 29 l 15,-1 64,-1 17,-1 101,-2 17,-1 c 5.92,-0.01 21.29,0.87 26,-1 z m 473,160.14 h 34 50 l 12,0.82 h 12 l 10,1.04 h 9 l 39,3.83 c 46.97,4.7 103.52,16.21 146,36.91 28.86,14.07 51.57,29.23 69.97,56.26 7.83,11.5 13.92,27.71 18.05,41 6.85,22.03 11.87,45.21 15.4,68 l 9.41,71 2.34,29 2.83,31 v 9 l 1,14 1,19 1.04,13 v 14 l 0.96,12 1,39 1,15 1,24 1,16 v 33 l -0.91,12 c -2.14,30.6 -10.41,60.32 -27.6,86 -8.66,12.92 -20.59,24.66 -32.49,34.57 -14.02,11.66 -31.35,22.25 -48,29.7 -18.02,8.06 -44.2,16.7 -64,16.73 l -41,-1.09 -26,-1.91 -24,-1 -14,-1 -21,-1 h -13 l -16,-1 h -16 l -16,-1 h -114 l -15,1 h -16 l -20,1 -21,1 -10,1 h -9 l -20,1.91 c -34.76,2.39 -69.41,5.82 -104,10.37 l -59,6.81 -10,0.91 -19,1 h -61 l -21,-1 -10,-0.91 -70,-6.81 -103,-14.86 c -29.9,-5.39 -82.36,-14.46 -109,-25.85 -14.81,-6.33 -28.5,-15.24 -39.91,-26.66 -25.91,-25.92 -48.22,-79.08 -74.51,-112.91 -33.3,-42.83 -77.66,-74.29 -130.58,-87.53 -28.91,-7.22 -56.37,-8.81 -86,-8.47 l -10,0.91 -37,3.67 -33,4.57 -32,2.85 -13,1 h -4 l -11,-1.04 h -9 c -38.3,-3.84 -78.32,-19.47 -91.33,-58.96 -2.22,-6.73 -4.97,-22.12 -4.58,-29 0.53,-9.24 1.35,-18.47 5.22,-27 10.75,-23.67 41.35,-38.96 66.69,-39 h 10 l 58,6.72 c 38.42,4.79 77.34,9.64 116,11.32 l 11,0.96 h 12 c 36.38,-0.06 78.06,-18.73 106.91,-39.98 34.18,-25.16 65.04,-61.19 80.63,-101.02 l 13.67,-38 c 8.05,-19.95 17.87,-39.32 28.51,-58 9.64,-16.92 20.12,-34.76 37.28,-44.98 24.17,-14.4 53.95,-12.06 81,-12.02 l 17,1 h 49 l 15,-1 h 23 l 17,-1 51,-2 26,-1.91 37,-2.18 19,-1.82 192,-16.92 118,-9.26 22,-1.91 h 9 l 11,-1 16,-1 20,-1 c 6.66,-0.03 13.39,0.36 20,-0.86 z M 1840,872 c -0.35,-15.83 -13.47,-44.25 -21.6,-58 -7.75,-13.1 -17.64,-26.22 -28.41,-36.99 -9.27,-9.25 -24.63,-21.27 -35.99,-27.72 -44.17,-25.12 -106.22,-26.87 -156,-26.29 l -14,1 h -4 l -31,2.84 c -5.48,0.58 -16.37,1.18 -21,3.16 h 20 l 10,0.96 h 15 l 12,1.04 h 8 l 49,6.58 c 55.4,9.99 108.58,29.28 151,67.59 12.25,11.06 24.8,25.66 33.27,39.83 z M 804,740 784,739 c -8.04,0.01 -19.3,1.43 -27,3.72 -12.01,3.57 -21.2,7.71 -31,15.74 C 705.82,775 699.44,794.75 690.95,818 l -20.09,52 c -22.58,54.16 -51.88,103.65 -101.86,136.79 -12.09,8.02 -29.9,14.07 -44,17.58 -33.07,8.23 -68.09,9.02 -102,8.63 l -15,-1 -51,-4.17 c -5.87,-0.58 -23.72,-4.25 -28,-2.83 23.95,8.8 57.47,14.22 83,16.09 l 12,0.91 h 36 l 10,-0.91 21,-1.94 c 26.3,-3.14 56.1,-8.76 80,-20.41 25.61,-12.48 56.97,-40.82 73.58,-63.74 21.72,-29.97 40.42,-69.11 52.88,-104 l 9.2,-26 c 7.76,-22.39 13.47,-40.37 31.5,-57.41 12.32,-11.63 26.38,-19.56 42.84,-23.7 z m 162,227 h -1 c 1.1305,1.96511 0.92936,0 1,0 z m -703,67.57 c -10.25,0.53 -19.62,3.26 -26.47,11.52 -10.71,12.9 -9.61,35.13 2.56,46.73 4.06,3.87 8.62,5.87 13.91,7.46 3.8,1.14 6.99,1.86 11,1.63 14.98,-0.87 28.29,-10.94 31.48,-25.91 0.65,-3.03 0.55,-6.87 0.52,-10 -0.11,-9.1 -3.99,-17.72 -11.04,-23.62 -6.8,-5.7 -13.37,-7.37 -21.96,-7.81 z M 1873,1201 c -3.45,4.46 -6.72,14.36 -9.31,20 -4.63,10.09 -9.96,19.71 -16.03,29 -21.99,33.61 -53.99,59.95 -89.66,78.04 -24.28,12.3 -50.44,20.63 -77,26.3 l -26,4.24 c -5.17,0.69 -8.16,-0.05 -13,2.42 l 31,2 c 23.21,0.04 46.46,-1.79 69,-7.73 54.05,-14.26 92.34,-47.35 115.3,-98.27 6.94,-15.37 14.93,-39.2 15.7,-56 z m -1178,59 c -1.29,3.93 0.35,7.08 1.37,11 2.35,9.02 5.26,16.64 9.39,25 14.53,29.49 38.03,53.29 70.24,62.42 7.12,2.02 23.3,6.24 30,3.58 -11.47,-2.62 -23.8,-8.89 -34,-14.72 -35.11,-20.07 -61.04,-50.23 -77,-87.28 z m 1174,327 c -2.07,1.44 -4.65,3.44 -7,4.28 l -28,2.81 -16,1.74 -40,3.34 -174,15.66 -44,4 -23,1.89 -40,3.45 -38,3.46 c -8.03,0.4 -22.8,-2.55 -25.39,8.37 -1.53,6.44 3.48,10.37 9.39,10.79 l 15,-1.75 h 9 l 19,-1.04 17,-1 32,-1 22,-1 23,-1 17,-1 h 8 l 10,-0.96 h 12 l 10,-1 h 13 l 14,-1.04 30,-1 10,-0.96 h 14 l 13,-1.04 h 6 l 15,-1 h 9 l 15,-1 h 7 l 15,-1 h 7 l 15,-1.04 h 12 l 10,-1.12 h 6 c 4.06,0.15 13.17,-1.21 15.96,0 3.53,0.78 5.93,4.27 3.85,7.78 -3.21,5.43 -16.91,7.48 -22.81,8.46 l -63,10.33 c -60,10.07 -120.49,17.9 -181,23.76 l -61,4.92 -8,0.93 h -10 l -10,1.02 h -11 l -11,0.96 h -21 l -17,1 h -31 l -15,-1 c -14.22,-0.16 -27.27,0.41 -41,-4.44 -15.75,-5.56 -32.95,-16.5 -46,-26.84 l -22,-17.97 c -7.35,-5.4 -19.75,-12.84 -28,-16.81 -25.39,-12.19 -53.2,-17.42 -81,-20.11 l -20,-1.83 -19,-1 -31,-1 -14,-1 h -17 l -16,-1 h -37 l -17,-1 h -48 l -17,1 h -40 l -16,1 -42,1 -12,0.96 h -12 l -13,1.08 h -12 l -11,0.96 -16,1 -29,1.91 -25,1.18 -33,2.82 -59,4.92 -73,6.89 -34,3.44 -113,13.12 -77,10 -17,2.55 -18,1.26 -9,0.9 -12,-0.9 c -15.88,-1.11 -27.01,-3.2 -41,-11.54 -18.95,-11.31 -34.39,-34.92 -38.54,-56.55 -1.41,-7.32 -1.54,-12.62 -1.46,-20 0.35,-29.24 21.57,-62.8 49,-73.54 13.66,-5.34 27.63,-4.62 42,-4.46 10.94,0.13 25.89,3.86 37,5.72 l 65,10.86 c 68.7,10.66 137.84,20.34 207,27.25 l 156,13.26 30,2 12,0.91 16,1 26,1 14,1 32,1 15,1 h 14 l 16,1 h 23 l 17,1 h 39 l 17,1 h 128 l 14,-1 h 14 l 14,-1 34,-1.91 c 17.53,-1.2 31.39,-1.42 48,-8.52 29.83,-12.75 51.39,-36.76 83,-47.57 23.59,-8.06 43.31,-11.48 68,-13.96 h 9 l 12,-1.04 h 26 l 23,1 15,1 31,1 17,1 h 56 l 17,1 h 19 l 16,1 53,2 14,1 25,1 16,1 43,2 15,1 21,0.88 c 3.16,-0.43 5.59,-1.38 8.7,0 5.45,2.99 3.81,7.13 -0.72,9.71 -5.08,2.88 -12.25,3.4 -17.98,3.41 h -7 l -15,1 h -9 l -15,1 h -9 l -15,1 h -9 l -15,1 h -9 l -15,1 h -10 l -15,1 h -9 l -11,0.96 h -14 l -15,1.04 -58,2 -12,0.96 h -13 l -17,1.08 h -12 l -12,1 h -14 l -12,0.96 -23,1.04 h -13 l -10,0.96 c -6.11,0.07 -15.07,-2.05 -19.85,1.7 -4.73,3.7 -3.75,11.29 0.96,14.56 2.89,2.01 6.55,1.73 9.89,1.74 h 40 l 17,-1 h 50 l 15,-1 h 214 55 c 10.71,0 19.62,-1.78 29,4 -5.56,7.53 -7.7,6.51 -16,7.09 l -13,1 -67,5 -74,5.82 -158,11.18 -69,5 -22,1.91 c -4.42,0.05 -11.19,-0.49 -14.72,2.56 -4.14,3.58 -2.7,9.98 1.78,12.42 2.22,1.21 5.45,1.02 7.94,1.02 h 16 l 13,-1 h 24 l 17,-1 101,-2 16,-1 h 23 l 17,-1 h 21 l 16,-1 101,-2 16,-1 h 24 c 8.01,0 13.31,-1.63 19,5 z m -560,21 c -1.38,7.77 9.93,23.47 15.09,29 14.53,15.6 31.67,21.71 51.91,26.35 4.46,1.02 16.9,3.57 21,3.57 l 16,-2.92 c -1.08,-5.34 -2.86,-7.21 -5.16,-12 -2.83,-5.88 -7.58,-16.84 -13.84,-19.26 -2.08,-0.81 -4.79,-0.73 -7,-0.74 -13.12,-0.07 -30.48,0.85 -43,-1.46 -16.97,-3.14 -23.94,-10.5 -35,-22.54 z m -1086,6 -1,1 c 25.87,16.17 41.9,24.15 73,24 8.21,-0.04 26.14,-2.81 33,-7 l -27,-1 -23,-2.28 -34,-7.74 z"
     stroke-width="1"
     stroke="#000000"
     fill="none"
     id="Selection" />
  <path
     style="fill:#000000;fill-opacity:1"
     id="Selection #3"
     fill="none"
     stroke="#000000"
     stroke-width="1.09676"
     d="m 956.92385,1069.1776 c 0,0 109.08585,-58.1326 109.08585,-58.1326 4.5524,-2.2936 23.0549,-12.36278 26.2226,-12.68388 5.4123,-0.5275 9.8701,3.94508 8.7479,10.03468 -0.9755,5.2755 -6.0102,8.3261 -9.7967,11.0899 0,0 -24.1249,17.9592 -24.1249,17.9592 0,0 -80.76549,60.4033 -80.76549,60.4033 -8.32828,6.1012 -25.48834,20.987 -34.61378,21.675 -15.16712,1.1583 -24.83801,-14.3353 -20.08648,-29.7027 2.2971,-7.42 7.33183,-9.1632 8.04509,-13.8651 0,0 -0.58739,-11.365 -0.58739,-11.365 0,0 0,-14.9088 0,-14.9088 0,0 -1.0489,-13.762 -1.0489,-13.762 0,0 0,-13.7618 0,-13.7618 0,0 -1.00695,-13.762 -1.00695,-13.762 0,0 -1.0489,-36.6984 -1.0489,-36.6984 0,0 -1.09086,-17.20239 -1.09086,-17.20239 0,0 0,-13.76191 0,-13.76191 0,0 -1.0489,-13.76191 -1.0489,-13.76191 0,0 0,-13.76191 0,-13.76191 0,0 -1.00694,-13.76192 -1.00694,-13.76192 0,0 -1.04891,-37.84526 -1.04891,-37.84526 -0.14685,-13.1885 -5.60114,-31.77854 10.48901,-37.09983 1.90901,-0.64221 4.30052,-0.81424 6.29343,-0.61927 15.03077,1.39912 14.8105,16.25052 14.68463,28.5445 0,0 -1.04889,17.20239 -1.04889,17.20239 0,0 -1.04892,60.78177 -1.04892,60.78177 0,0 -1.0489,17.2024 -1.0489,17.2024 0,0 0,21.78974 0,21.78974 0,0 -1.0489,19.49602 -1.0489,19.49602 0,0 0,21.78968 0,21.78968 0,0 -1.04891,18.3492 -1.04891,18.3492 0,0 0,21.7897 0,21.7897 0,0 -1.04889,18.3492 -1.04889,18.3492 z" />
  <path
     style="fill:#000000;fill-opacity:1"
     id="Selection #2"
     fill="none"
     stroke="#000000"
     stroke-width="1.07831"
     d="m 1215.8381,1040.056 c 0,0 82.7909,-33.1657 82.7909,-33.1657 6.9996,-2.7438 26.1042,-12.4674 29.2779,-1.1124 2.0948,7.536 -18.2392,14.8217 -25.5148,18.65 0,0 -63.9747,32.2945 -63.9747,32.2945 -4.6663,2.373 -22.5919,10.1962 -24.3355,13.1903 -0.9909,1.687 -0.7401,6.7574 -1.1039,9.0747 0,0 -2.2705,26.8812 -2.2705,26.8812 0,0 -3.5374,35.2237 -3.5374,35.2237 0,0 -1.4802,23.1733 -1.4802,23.1733 0,0 -2.3457,22.2465 -2.3457,22.2465 0,0 -2.4461,27.8082 -2.4461,27.8082 -0.3513,3.7448 0.6271,9.6586 -1.7561,12.875 -3.3118,4.4679 -12.0675,4.9129 -16.1067,0.8157 -2.2454,-2.2894 -2.2705,-5.4225 -2.3206,-8.1292 0,0 0,-25.0273 0,-25.0273 0,0 -1.2544,-15.7579 -1.2544,-15.7579 0,0 0,-25.9542 0,-25.9542 0,0 -1.2544,-12.9771 -1.2544,-12.9771 0,0 0,-24.1004 0,-24.1004 0,0 -1.2544,-15.7579 -1.2544,-15.7579 0,0 0,-23.1734 0,-23.1734 0,0 -1.2544,-15.758 -1.2544,-15.758 0,0 -2.5088,-101.9631 -2.5088,-101.9631 -0.025,-9.74211 -4.5787,-19.32662 5.4441,-27.72469 4.9047,-4.10631 13.4849,-6.72028 20.8984,-6.37731 5.4316,0.25027 9.5585,2.30807 15.0529,1.16794 0,0 22.5792,-7.46184 22.5792,-7.46184 0,0 51.4309,-17.3059 51.4309,-17.3059 0,0 40.1409,-13.1069 40.1409,-13.1069 5.9208,-1.11232 13.0082,-0.35224 14.0996,4.99619 0.6773,3.31844 -2.3207,5.96947 -5.3815,8.06434 0,0 -22.5165,12.59708 -22.5165,12.59708 0,0 -61.466,33.68489 -61.466,33.68489 0,0 -28.4624,16.2585 -28.4624,16.2585 -4.0769,3.5872 -4.0017,17.89916 -4.1648,23.01586 0,0 -1.1917,9.26934 -1.1917,9.26934 0,0 -3.8133,43.566 -3.8133,43.566 z" />
  <path
     style="stroke-width:1.01834"
     sodipodi:nodetypes="aaaacaacccccccaaccsacasaacc"
     d="m 1476.1179,976.97357 c 21.7188,-1.23765 45.5368,3.77906 62.2031,12.25996 12.404,6.31181 19.2151,16.41457 22.6753,25.97167 3.6901,10.192 -0.4041,20.9201 -2.8398,31.248 -1.9141,8.1157 -6.6785,15.9725 -9.2096,23.9575 -7.3839,11.4713 -13.3418,23.3561 -23.156,34.1311 -13.3412,14.6472 -30.3304,28.0657 -48.051,40.9173 -14.93,10.8277 -33.834,19.5372 -48.8276,30.2979 -3.4885,15.8074 -2.2329,31.9518 -2.9481,47.9255 -2.6679,27.9218 -0.8328,55.9536 -3.5578,83.8704 7.7046,9.5367 -16.0914,19.8024 -19.6669,6.9639 -4.1551,-44.5399 -7.4543,-89.109 -11.4567,-133.6568 -1.0295,-40.7909 -0.1542,-81.6079 -0.4447,-122.4089 -1.2378,-10.9263 2.5091,-21.5533 6.7806,-32.1013 5.3363,-12.0133 14.4079,-23.9987 28.8008,-32.83266 13.258,-8.13761 30.8558,-15.46991 49.6984,-16.54357 z m -45.9199,171.56293 c 33.817,-18.1989 53.487,-41.1942 73.7063,-63.2547 9.5133,-10.4999 17.0563,-21.6288 19.4447,-33.3107 2.3355,-11.4232 4.7721,-23.6697 0.3105,-35.0345 -1.0982,-2.7976 -3.4227,-5.326 -6.4811,-7.6899 -2.5339,-3.9318 -8.1985,-5.588 -13.8022,-6.7471 -10.9545,-2.2659 -24.7198,-1.7691 -34.7396,0.4229 -16.4122,3.5905 -26.1713,14.9311 -32.56,24.721 -7.1097,10.8948 -3.6441,23.3185 -4.5666,35.0118 -1.2538,15.8949 -2.2112,31.7963 -1.312,47.7322 -1.2357,13.5794 -2.5647,24.684 0,38.149 z"
     id="Selection-2" />
</svg>
